# xmcd CD database file
#
# Track frame offsets:
#	150
#	21229
#	47238
#	68293
#	96300
#	116759
#	140342
#	169876
#
# Disc length: 2682 seconds
#
# Revision: 0
# Processed by: cddbd v1.5.2PL0 Copyright (c) Steve Scherf et al.
# Submitted via: CDex 1.70beta2
#
DISCID=6a0a7808
DTITLE=Libor Smoldas Trio - On the Playground
DYEAR=2007
DGENRE=Jazz
TTITLE0=On the Playground
TTITLE1=The Message
TTITLE2=Handle With Care
TTITLE3=Valse Hot
TTITLE4=Funky Piece
TTITLE5=Christopher's Dance
TTITLE6=Just One Of Those Things
TTITLE7=Snow
EXTD=YEAR: 2007
EXTT0=
EXTT1=
EXTT2=
EXTT3=
EXTT4=
EXTT5=
EXTT6=
EXTT7=
PLAYORDER=
